<?xml version="1.0" encoding="utf-8"?>
<!-- Generator: Adobe Illustrator 26.0.1, SVG Export Plug-In . SVG Version: 6.00 Build 0)  -->
<svg version="1.1" id="图层_1" xmlns="http://www.w3.org/2000/svg" xmlns:xlink="http://www.w3.org/1999/xlink" x="0px" y="0px"
	 viewBox="0 0 200 200" style="enable-background:new 0 0 200 200;" xml:space="preserve">
<style type="text/css">
	.st0{fill:#FC99CB;}
	.st1{fill:#FFC0CB;}
</style>
<path class="st0" d="M96,123.8c0,2.2,1.8,4,4,4c2.2,0,4-1.8,4-4l0,0c0-2.2-1.8-4-4-4C97.8,119.8,96,121.6,96,123.8z"/>
<path class="st1" d="M154.3,115.8c16.8-5.5,25.5-15.2,29.8-26c-5.5-2.6-9.5-5.7-9.5-5.7s1.4-5.1,4.5-10.7
	c-9.7-6.1-23.1-10.3-40.2-4.7c-9.2,3-16.4,9.8-21.6,16.7c4.9-7.1,9-15.9,9-25.5c0-18.2-7-29.7-16.4-37c-4.2,4.5-8.4,7.2-8.4,7.2
	s-4-2.6-8-6.9C84.8,30.6,76.8,42,76.8,59.9c0,9.7,4.2,18.6,9.2,25.7c-5.2-6.9-12.3-13.5-21.4-16.5c-17.6-5.7-30.7-2.4-40.7,4.4
	c2.6,5,3.8,9.3,3.8,9.3s-3.5,2.8-8.5,5.3c4.2,10.9,12.5,22.5,30.1,28.2c9.2,3,19,1.7,27.3-0.8c-8.1,2.9-16.7,7.6-22.3,15.3
	c-10.6,14.6-11.8,27.9-8.6,39.3c5.3-0.8,9.4-0.6,9.4-0.6s1.7,4.5,2.5,10.4c11.8-0.5,25.8-4.7,36.8-19.9c5.7-7.8,7.5-17.5,7.7-26.2
	c0.2,8.6,2,18.2,7.7,25.9c10.3,14.2,22.2,19.5,33.7,20.3c0.8-5.6,2.4-9.7,2.4-9.7s5.4-0.2,11.7,1c3.1-11.3,3.2-25.7-7.7-40.7
	c-5.7-7.8-14.3-12.5-22.5-15.4C135.5,117.6,145.2,118.8,154.3,115.8L154.3,115.8z M117.6,95.8c1.2-0.7,2.7-0.3,3.4,0.9
	c0.7,1.2,0.3,2.7-0.9,3.4c-1.1,0.6-2.5,0.3-3.3-0.7l-12.2,7.1l-0.2-0.3l12.2-7.1C116,97.8,116.4,96.4,117.6,95.8L117.6,95.8z
	 M109.9,89.9c0.7-1.2,2.2-1.6,3.4-0.9c1.2,0.7,1.6,2.2,0.9,3.4c-0.6,1.1-2,1.5-3.2,1l-7,12.1l-0.3-0.2l7-12.1
	C109.6,92.5,109.3,91,109.9,89.9L109.9,89.9z M102.8,86.3c1.4,0,2.5,1.1,2.5,2.5c0,1.3-1,2.4-2.3,2.5v14h-0.4v-14
	c-1.3-0.1-2.3-1.2-2.3-2.5C100.4,87.4,101.5,86.3,102.8,86.3L102.8,86.3z M92.4,89c1.2-0.7,2.7-0.3,3.4,0.9c0.6,1.1,0.3,2.5-0.7,3.3
	l7,12.1l-0.3,0.2l-7-12.1c-1.1,0.5-2.5,0.1-3.2-1C90.8,91.2,91.2,89.7,92.4,89z M84.8,96.7c0.7-1.2,2.2-1.6,3.4-0.9
	c1.1,0.6,1.5,2,1,3.2l12.2,7.1l-0.2,0.3v0l-12.2-7.1c-0.7,1-2.1,1.4-3.3,0.7C84.5,99.4,84.1,97.9,84.8,96.7z M82,107.1
	c0-1.4,1.1-2.5,2.5-2.5c1.3,0,2.4,1,2.5,2.3h14.2v0.4l0,0H86.9c-0.1,1.3-1.2,2.3-2.5,2.3C83.1,109.6,82,108.5,82,107.1z M88.2,118.5
	c-1.2,0.7-2.7,0.3-3.4-0.9c-0.7-1.2-0.3-2.7,0.9-3.4c1.1-0.6,2.5-0.3,3.3,0.7l12.5-7.2l0.2,0.3l0,0l-12.5,7.2
	C89.7,116.4,89.3,117.8,88.2,118.5L88.2,118.5z M95.8,124.3c-0.7,1.2-2.2,1.6-3.4,0.9c-1.2-0.7-1.6-2.2-0.9-3.4c0.6-1.1,2-1.5,3.2-1
	l7.2-12.5l0.3,0.2L95.1,121C96.1,121.7,96.5,123.2,95.8,124.3z M102.9,128c-1.4,0-2.5-1.1-2.5-2.5c0-1.3,1-2.4,2.3-2.5v-14.5h0.4
	V123c1.3,0.1,2.3,1.2,2.3,2.5C105.3,126.9,104.2,128,102.9,128L102.9,128z M113.3,125.2c-1.2,0.7-2.7,0.3-3.4-0.9
	c-0.6-1.1-0.3-2.5,0.7-3.3l-7.2-12.6l0.3-0.2l7.2,12.6c1.1-0.5,2.5-0.1,3.2,1C114.9,123,114.5,124.5,113.3,125.2z M120.9,117.5
	c-0.7,1.2-2.2,1.6-3.4,0.9c-1.1-0.6-1.5-2-1-3.2l-12.5-7.2l0.2-0.3l12.5,7.2c0.7-1,2.1-1.4,3.3-0.7
	C121.2,114.8,121.6,116.3,120.9,117.5L120.9,117.5z M121.3,109.5c-1.3,0-2.4-1-2.5-2.3h-14.3l0,0v-0.4h14.3c0.1-1.3,1.2-2.3,2.5-2.3
	c1.4,0,2.5,1.1,2.5,2.5C123.7,108.4,122.6,109.5,121.3,109.5z"/>
</svg>
